P3
# Created by GIMP version 2.10.30 PNM plug-in
2 3
255
255
0
0
166
0
255
0
0
255
95
130
158
0
255
36
79
202
119
