P3
# Created by GIMP version 2.10.30 PNM plug-in
3 3
255
255
0
0
0
0
255
0
255
0
126
0
255
245
195
30
255
54
0
153
255
0
240
255
147
94
232
255
