P3
3 3
255
#
255
0
0
#
0
255
0
#
0
0
255
#
0
0
0
#
255
255
255
#
100
100
100
#
250
100
100
#
230
20
70
#
94
232
255